<svg width="38" height="36" viewBox="0 0 38 36" fill="none" xmlns="http://www.w3.org/2000/svg">
<path d="M12 0.5H26C32.3513 0.5 37.5 5.64873 37.5 12V24C37.5 30.3513 32.3513 35.5 26 35.5H12C5.64873 35.5 0.5 30.3513 0.5 24V12C0.5 5.64873 5.64873 0.5 12 0.5Z" fill="#1D1D1D"/>
<path d="M12 0.5H26C32.3513 0.5 37.5 5.64873 37.5 12V24C37.5 30.3513 32.3513 35.5 26 35.5H12C5.64873 35.5 0.5 30.3513 0.5 24V12C0.5 5.64873 5.64873 0.5 12 0.5Z" stroke="#CA9A4B"/>
<rect width="24" height="23" transform="translate(7 6)" fill="#1D1D1D"/>
<path d="M26.27 11.1079C24.94 10.5138 23.5 10.0825 22 9.83334C21.9736 9.8337 21.9485 9.84403 21.93 9.86209C21.75 10.1783 21.54 10.5904 21.4 10.9067C19.809 10.6768 18.191 10.6768 16.6 10.9067C16.46 10.5808 16.25 10.1783 16.06 9.86209C16.05 9.84292 16.02 9.83334 15.99 9.83334C14.49 10.0825 13.06 10.5138 11.72 11.1079C11.71 11.1079 11.7 11.1175 11.69 11.1271C8.97 15.0275 8.22 18.8225 8.59 22.5792C8.59 22.5983 8.6 22.6175 8.62 22.6271C10.42 23.8921 12.15 24.6588 13.86 25.1667C13.89 25.1763 13.92 25.1667 13.93 25.1475C14.33 24.6204 14.69 24.0646 15 23.48C15.02 23.4417 15 23.4033 14.96 23.3938C14.39 23.1829 13.85 22.9338 13.32 22.6463C13.28 22.6271 13.28 22.5696 13.31 22.5408C13.42 22.4642 13.53 22.3779 13.64 22.3013C13.66 22.2821 13.69 22.2821 13.71 22.2917C17.15 23.7963 20.86 23.7963 24.26 22.2917C24.28 22.2821 24.31 22.2821 24.33 22.3013C24.44 22.3875 24.55 22.4642 24.66 22.5504C24.7 22.5792 24.7 22.6367 24.65 22.6558C24.13 22.9529 23.58 23.1925 23.01 23.4033C22.97 23.4129 22.96 23.4608 22.97 23.4896C23.29 24.0742 23.65 24.63 24.04 25.1571C24.07 25.1667 24.1 25.1763 24.13 25.1667C25.85 24.6588 27.58 23.8921 29.38 22.6271C29.4 22.6175 29.41 22.5983 29.41 22.5792C29.85 18.2379 28.68 14.4717 26.31 11.1271C26.3 11.1175 26.29 11.1079 26.27 11.1079ZM15.52 20.2888C14.49 20.2888 13.63 19.3783 13.63 18.2571C13.63 17.1358 14.47 16.2254 15.52 16.2254C16.58 16.2254 17.42 17.1454 17.41 18.2571C17.41 19.3783 16.57 20.2888 15.52 20.2888ZM22.49 20.2888C21.46 20.2888 20.6 19.3783 20.6 18.2571C20.6 17.1358 21.44 16.2254 22.49 16.2254C23.55 16.2254 24.39 17.1454 24.38 18.2571C24.38 19.3783 23.55 20.2888 22.49 20.2888Z" fill="#CA9A4B"/>
</svg>
