<svg width="43" height="36" viewBox="0 0 43 36" fill="none" xmlns="http://www.w3.org/2000/svg">
<g clip-path="url(#clip0_40_34)">
<path d="M0 12C0 5.37258 5.37258 0 12 0H31C37.6274 0 43 5.37258 43 12V24C43 30.6274 37.6274 36 31 36H12C5.37258 36 0 30.6274 0 24V12Z" fill="#1D1D1D"/>
<path d="M11.5 26.7H32.5C32.925 26.7 33.2815 26.8104 33.5695 27.0312C33.8575 27.252 34.001 27.5249 34 27.85C33.999 28.1751 33.855 28.4484 33.568 28.6699C33.281 28.8915 32.925 29.0015 32.5 29H11.5C11.075 29 10.719 28.8896 10.432 28.6688C10.145 28.448 10.001 28.1751 10 27.85C9.99901 27.5249 10.143 27.252 10.432 27.0312C10.721 26.8104 11.077 26.7 11.5 26.7ZM22 23.6812C21.775 23.6812 21.5565 23.6429 21.3445 23.5662C21.1325 23.4896 20.951 23.3746 20.8 23.2212L13.375 15.9187C13 15.5354 12.95 15.1283 13.225 14.6974C13.5 14.2666 13.95 14.0508 14.575 14.05H17.5V7.15C17.5 6.82417 17.644 6.55123 17.932 6.3312C18.22 6.11117 18.576 6.00077 19 6H25C25.425 6 25.7815 6.1104 26.0695 6.3312C26.3575 6.552 26.501 6.82493 26.5 7.15V14.05H29.425C30.05 14.05 30.5 14.2658 30.775 14.6974C31.05 15.1291 31 15.5362 30.625 15.9187L23.2 23.2212C23.05 23.3746 22.8685 23.4896 22.6555 23.5662C22.4425 23.6429 22.224 23.6812 22 23.6812Z" fill="#D0A55F"/>
</g>
<path d="M12 0.5H31C37.3513 0.5 42.5 5.64873 42.5 12V24C42.5 30.3513 37.3513 35.5 31 35.5H12C5.64873 35.5 0.5 30.3513 0.5 24V12C0.5 5.64873 5.64873 0.500001 12 0.5Z" stroke="#CA9A4B"/>
<defs>
<clipPath id="clip0_40_34">
<path d="M0 12C0 5.37258 5.37258 0 12 0H31C37.6274 0 43 5.37258 43 12V24C43 30.6274 37.6274 36 31 36H12C5.37258 36 0 30.6274 0 24V12Z" fill="white"/>
</clipPath>
</defs>
</svg>
