<svg width="39" height="34" viewBox="0 0 39 34" fill="none" xmlns="http://www.w3.org/2000/svg">
<g clip-path="url(#clip0_40_43)">
<path d="M0 12C0 5.37258 5.37258 0 12 0H26.7222C33.3496 0 38.7222 5.37258 38.7222 12V22C38.7222 28.6274 33.3496 34 26.7222 34H12C5.37259 34 0 28.6274 0 22V12Z" fill="#1D1D1D"/>
<rect width="31" height="34" transform="translate(10 7)" fill="#1D1D1D"/>
<path d="M34 11.7059C33.1166 12.1794 32.1644 12.4906 31.1778 12.6394C32.1874 11.9224 32.9675 10.7859 33.3346 9.41941C32.3824 10.0959 31.327 10.5694 30.2141 10.84C29.3078 9.67647 28.0344 9 26.5889 9C23.8929 9 21.6902 11.5976 21.6902 14.8041C21.6902 15.2641 21.7361 15.7106 21.8164 16.13C17.7323 15.8865 14.0956 13.5729 11.675 10.0688C11.2505 10.9212 11.0096 11.9224 11.0096 12.9776C11.0096 14.9935 11.87 16.7794 13.2008 17.7941C12.3862 17.7941 11.6291 17.5235 10.9637 17.1176V17.1582C10.9637 19.9724 12.6616 22.3265 14.9101 22.8541C14.1883 23.0881 13.4303 23.1205 12.696 22.9488C13.0076 24.1022 13.6178 25.1114 14.4409 25.8346C15.264 26.5577 16.2586 26.9585 17.2849 26.9806C15.5453 28.6048 13.3889 29.4827 11.1702 29.47C10.7801 29.47 10.3901 29.4429 10 29.3888C12.1797 31.0394 14.7725 32 17.5488 32C26.5889 32 31.5564 23.1518 31.5564 15.4806C31.5564 15.2235 31.5564 14.98 31.5449 14.7229C32.5086 13.9112 33.3346 12.8829 34 11.7059Z" fill="#C48E35"/>
</g>
<path d="M12 0.5H26.7227C33.0737 0.500238 38.2227 5.64887 38.2227 12V22C38.2227 28.3511 33.0737 33.4998 26.7227 33.5H12C5.64873 33.5 0.5 28.3513 0.5 22V12C0.5 5.64873 5.64873 0.5 12 0.5Z" stroke="#CA9A4B"/>
<defs>
<clipPath id="clip0_40_43">
<path d="M0 12C0 5.37258 5.37258 0 12 0H26.7222C33.3496 0 38.7222 5.37258 38.7222 12V22C38.7222 28.6274 33.3496 34 26.7222 34H12C5.37259 34 0 28.6274 0 22V12Z" fill="white"/>
</clipPath>
</defs>
</svg>
