<svg width="38" height="36" viewBox="0 0 38 36" fill="none" xmlns="http://www.w3.org/2000/svg">
<path d="M12 0.5H26C32.3513 0.5 37.5 5.64873 37.5 12V24C37.5 30.3513 32.3513 35.5 26 35.5H12C5.64873 35.5 0.5 30.3513 0.5 24V12C0.5 5.64873 5.64873 0.5 12 0.5Z" fill="#1D1D1D"/>
<path d="M12 0.5H26C32.3513 0.5 37.5 5.64873 37.5 12V24C37.5 30.3513 32.3513 35.5 26 35.5H12C5.64873 35.5 0.5 30.3513 0.5 24V12C0.5 5.64873 5.64873 0.5 12 0.5Z" stroke="#CA9A4B"/>
<path d="M13.96 6H24.04C27.88 6 31 8.99 31 12.67V22.33C31 24.099 30.2667 25.7955 28.9615 27.0464C27.6562 28.2973 25.8859 29 24.04 29H13.96C10.12 29 7 26.01 7 22.33V12.67C7 10.901 7.73328 9.20447 9.03854 7.9536C10.3438 6.70273 12.1141 6 13.96 6ZM13.72 8.3C12.5743 8.3 11.4755 8.73618 10.6653 9.51258C9.85514 10.289 9.4 11.342 9.4 12.44V22.56C9.4 24.8485 11.332 26.7 13.72 26.7H24.28C25.4257 26.7 26.5245 26.2638 27.3347 25.4874C28.1449 24.711 28.6 23.658 28.6 22.56V12.44C28.6 10.1515 26.668 8.3 24.28 8.3H13.72ZM25.3 10.025C25.6978 10.025 26.0794 10.1765 26.3607 10.446C26.642 10.7156 26.8 11.0813 26.8 11.4625C26.8 11.8437 26.642 12.2094 26.3607 12.479C26.0794 12.7485 25.6978 12.9 25.3 12.9C24.9022 12.9 24.5206 12.7485 24.2393 12.479C23.958 12.2094 23.8 11.8437 23.8 11.4625C23.8 11.0813 23.958 10.7156 24.2393 10.446C24.5206 10.1765 24.9022 10.025 25.3 10.025ZM19 11.75C20.5913 11.75 22.1174 12.3558 23.2426 13.4341C24.3679 14.5125 25 15.975 25 17.5C25 19.025 24.3679 20.4875 23.2426 21.5659C22.1174 22.6442 20.5913 23.25 19 23.25C17.4087 23.25 15.8826 22.6442 14.7574 21.5659C13.6321 20.4875 13 19.025 13 17.5C13 15.975 13.6321 14.5125 14.7574 13.4341C15.8826 12.3558 17.4087 11.75 19 11.75ZM19 14.05C18.0452 14.05 17.1295 14.4135 16.4544 15.0605C15.7793 15.7075 15.4 16.585 15.4 17.5C15.4 18.415 15.7793 19.2925 16.4544 19.9395C17.1295 20.5865 18.0452 20.95 19 20.95C19.9548 20.95 20.8705 20.5865 21.5456 19.9395C22.2207 19.2925 22.6 18.415 22.6 17.5C22.6 16.585 22.2207 15.7075 21.5456 15.0605C20.8705 14.4135 19.9548 14.05 19 14.05Z" fill="#CA9A4B"/>
</svg>
